<svg width="19" height="19" viewBox="0 0 19 19" fill="none" xmlns="http://www.w3.org/2000/svg">
<mask id="mask0_9_33229" style="mask-type:luminance" maskUnits="userSpaceOnUse" x="0" y="0" width="19" height="19">
<path fill-rule="evenodd" clip-rule="evenodd" d="M0 0H18.9133V18.6796H0V0Z" fill="white"/>
</mask>
<g mask="url(#mask0_9_33229)">
<path fill-rule="evenodd" clip-rule="evenodd" d="M0 9.33979C0 4.18164 4.23391 0 9.45654 0C14.6794 0 18.9133 4.18164 18.9133 9.33979C18.9133 14.4979 14.6794 18.6796 9.45654 18.6796C4.23391 18.6796 0 14.4979 0 9.33979Z" fill="#FFD715"/>
</g>
<path fill-rule="evenodd" clip-rule="evenodd" d="M1.43092 9.33984C1.43092 4.9621 5.02405 1.41309 9.45652 1.41309C13.8892 1.41309 17.4824 4.9621 17.4824 9.33984C17.4824 13.7176 13.8892 17.2666 9.45652 17.2666C5.02405 17.2666 1.43092 13.7176 1.43092 9.33984Z" fill="#FFCC01"/>
<path fill-rule="evenodd" clip-rule="evenodd" d="M13.6557 2.57446C14.4549 3.80688 14.9182 5.27199 14.9182 6.84407C14.9182 11.2218 11.3251 14.7706 6.89239 14.7706C5.35315 14.7706 3.91509 14.3423 2.69363 13.6001C4.12005 15.7994 6.61594 17.2572 9.45668 17.2572C13.8891 17.2572 17.4823 13.7082 17.4823 9.33049C17.4823 6.47298 15.9514 3.9692 13.6557 2.57446Z" fill="#FCBD11"/>
<path fill-rule="evenodd" clip-rule="evenodd" d="M2.8368 10.065C2.8368 6.20052 6.00861 3.06787 9.92142 3.06787C12.2085 3.06787 14.242 4.13843 15.5373 5.79964C14.314 3.70214 12.0212 2.29004 9.39417 2.29004C5.48136 2.29004 2.30955 5.42269 2.30955 9.2872C2.30955 10.8926 2.85746 12.3718 3.77825 13.5526C3.17927 12.5259 2.8368 11.335 2.8368 10.065Z" fill="#FFDB53"/>
</svg>
