<svg xmlns="http://www.w3.org/2000/svg" version="1.1" xmlns:xlink="http://www.w3.org/1999/xlink" xmlns:svgjs="http://svgjs.dev/svgjs" width="1500" height="1500" viewBox="0 0 1500 1500"><g transform="matrix(1,0,0,1,-0.21332335329316265,-0.21332335329350371)"><svg viewBox="0 0 334 334" data-background-color="#ffffff" preserveAspectRatio="xMidYMid meet" height="1500" width="1500" xmlns="http://www.w3.org/2000/svg" xmlns:xlink="http://www.w3.org/1999/xlink"><g id="tight-bounds" transform="matrix(1,0,0,1,0.04749999999998522,0.04750000000001364)"><svg viewBox="0 0 333.90454557049503 333.90454557049503" height="333.90454557049503" width="333.90454557049503"><g><svg></svg></g><g><svg viewBox="0 0 333.90454557049503 333.90454557049503" height="333.90454557049503" width="333.90454557049503"><g><path d="M0 166.952c0-92.205 74.747-166.952 166.952-166.952 92.205 0 166.952 74.747 166.953 166.952 0 92.205-74.747 166.952-166.953 166.953-92.205 0-166.952-74.747-166.952-166.953zM166.952 316.63c82.665 0 149.677-67.013 149.678-149.678 0-82.665-67.013-149.677-149.678-149.677-82.665 0-149.677 67.013-149.677 149.677 0 82.665 67.013 149.677 149.677 149.678z" data-fill-palette-color="tertiary" fill="#7f5199" stroke="transparent"></path><ellipse rx="160.27418187383762" ry="160.27418187383762" cx="166.95227278524752" cy="166.95227278524752" fill="#7f5199" stroke="transparent" stroke-width="0" fill-opacity="1" data-fill-palette-color="tertiary"></ellipse></g><g transform="matrix(1,0,0,1,78.72815608775277,71.17305217166896)"><svg viewBox="0 0 176.4482333949895 191.55844122715712" height="191.55844122715712" width="176.4482333949895"><g><svg viewBox="0 0 176.4482333949895 191.55844122715712" height="191.55844122715712" width="176.4482333949895"><g><svg viewBox="0 0 176.4482333949895 191.55844122715712" height="191.55844122715712" width="176.4482333949895"><g><svg viewBox="0 0 176.4482333949895 191.55844122715712" height="191.55844122715712" width="176.4482333949895"><g id="textblocktransform"><svg viewBox="0 0 176.4482333949895 191.55844122715712" height="191.55844122715712" width="176.4482333949895" id="textblock"><g><svg viewBox="0 0 176.4482333949895 191.55844122715712" height="191.55844122715712" width="176.4482333949895"><g transform="matrix(1,0,0,1,0,0)"><svg width="176.4482333949895" viewBox="0.49 -36.57 35.35 38.38" height="191.55844122715712" data-palette-color="#ffffff"><path d="M31.45-35.79L31.49-35.99Q31.69-35.64 32.01-35.69 32.32-35.74 32.67-35.64L32.67-35.64 33.2-35.45Q33.5-35.4 33.64-35.33 33.79-35.25 33.94-35.16L33.94-35.16Q34.42-35.21 35.08-34.89 35.74-34.57 35.84-34.42L35.84-34.42Q35.25-32.37 34.64-30.44 34.03-28.52 33.5-26.56L33.5-26.56Q33.35-26.12 33.18-25.46 33.01-24.8 32.84-24.1 32.67-23.39 32.47-22.78 32.28-22.17 32.13-21.83L32.13-21.83 31.88-21.09Q31.01-17.58 30.08-14.14 29.15-10.69 28.03-7.18L28.03-7.18Q27.64-6.05 27.42-4.86 27.2-3.66 26.86-2.49L26.86-2.49Q26.46-1.9 26.44-1.46 26.42-1.03 26.37-0.59 26.32-0.15 26.2 0.24 26.07 0.63 25.78 0.78L25.78 0.78Q25.78 1.17 25.61 1.37 25.44 1.56 25.34 1.81L25.34 1.81Q24.95 1.81 24.54 1.46 24.12 1.12 23.78 0.83L23.78 0.83Q23.54 0.44 23.34-0.02 23.14-0.49 23.05-0.93L23.05-0.93Q22.61-2.93 22.12-4.88 21.63-6.84 21.14-8.79L21.14-8.79Q21.14-8.94 21.07-9.28 21-9.62 20.9-10.01 20.8-10.4 20.73-10.69 20.65-10.99 20.61-11.08L20.61-11.08Q20.31-12.94 19.85-14.77 19.38-16.6 18.7-18.31L18.7-18.31Q18.7-18.6 18.6-18.9 18.51-19.19 18.51-19.48L18.51-19.48Q18.41-19.68 18.36-19.97 18.31-20.26 18.12-20.36L18.12-20.36Q17.87-20.36 17.85-20.07 17.82-19.78 17.82-19.53L17.82-19.53Q17.48-18.41 17.29-17.68 17.09-16.94 17.04-16.21L17.04-16.21Q16.75-15.67 16.75-14.94L16.75-14.94Q16.6-14.7 16.55-14.36 16.5-14.01 16.41-13.72L16.41-13.72Q15.58-10.6 14.65-7.76L14.65-7.76Q14.55-7.42 14.5-7.06 14.45-6.69 14.36-6.3L14.36-6.3Q14.06-5.03 13.87-3.81 13.67-2.59 13.48-1.32L13.48-1.32Q13.38-0.88 13.28-0.73 13.18-0.59 13.09-0.54 12.99-0.49 12.92-0.46 12.84-0.44 12.84-0.29L12.84-0.29Q12.6 0.1 12.7 0.2 12.79 0.29 12.79 0.39L12.79 0.39Q12.79 0.49 12.52 0.51 12.26 0.54 12.16 0.54L12.16 0.54Q11.77 0.39 11.55 0.59 11.33 0.78 11.18 0.78L11.18 0.78Q11.04 0.54 10.84 0.37 10.64 0.2 10.55 0.29L10.55 0.29Q10.06 0.05 9.94 0 9.81-0.05 9.72-0.15L9.72-0.15Q9.62-0.78 9.35-1.39 9.08-2 8.89-2.59L8.89-2.59Q8.69-3.27 8.59-3.98 8.5-4.69 8.35-5.42L8.35-5.42Q8.25-5.76 8.08-6.25 7.91-6.74 7.91-7.03L7.91-7.03Q7.81-7.62 7.79-7.81 7.76-8.01 7.67-8.15L7.67-8.15Q7.67-8.94 7.32-9.94 6.98-10.94 6.84-11.77L6.84-11.77Q6.3-14.6 5.66-17.14L5.66-17.14Q5.57-17.53 5.42-17.87 5.27-18.21 5.13-18.6L5.13-18.6Q4.88-19.34 4.69-20.09 4.49-20.85 4.25-21.63L4.25-21.63Q4.05-22.27 3.88-22.88 3.71-23.49 3.52-24.17L3.52-24.17Q3.42-24.46 3.27-24.76 3.13-25.05 2.98-25.39L2.98-25.39Q2.78-26.07 2.64-26.68 2.49-27.29 2.29-27.88L2.29-27.88Q1.9-29.2 1.49-30.49 1.07-31.79 0.68-33.11L0.68-33.11Q0.68-33.45 0.63-33.62 0.59-33.79 0.63-34.03L0.63-34.03Q0.54-34.23 0.51-34.47 0.49-34.72 0.49-34.96L0.49-34.96 0.49-35.64Q0.73-35.74 1.27-35.91 1.81-36.08 2.05-36.08L2.05-36.08Q2.69-36.04 2.98-36.08 3.27-36.13 3.47-36.33L3.47-36.33Q3.61-36.33 3.74-36.28 3.86-36.23 4-36.23L4-36.23Q4.59-36.38 4.69-36.28L4.69-36.28Q4.88-36.33 4.98-36.45 5.08-36.57 5.32-36.57L5.32-36.57Q5.42-36.57 5.57-36.33 5.71-36.08 5.81-35.99L5.81-35.99Q5.91-35.74 6.01-35.52 6.1-35.3 6.2-35.06L6.2-35.06Q6.49-34.33 6.71-33.4 6.93-32.47 7.23-31.64L7.23-31.64Q7.47-31.1 7.62-30.49 7.76-29.88 7.96-29.3L7.96-29.3Q8.06-29.05 8.15-28.81 8.25-28.56 8.35-28.32L8.35-28.32Q8.5-27.73 8.67-27.22 8.84-26.71 8.98-26.17L8.98-26.17Q9.57-24.46 10.08-22.73 10.6-21 10.99-19.29L10.99-19.29Q11.08-18.8 11.23-18.16 11.38-17.53 11.67-17.14L11.67-17.14Q11.87-17.29 11.94-17.68 12.01-18.07 12.11-18.31L12.11-18.31Q12.21-18.6 12.28-18.9 12.35-19.19 12.45-19.48L12.45-19.48Q12.6-20.17 12.74-20.78 12.89-21.39 13.09-22.02L13.09-22.02Q13.33-23.1 13.57-24.19 13.82-25.29 14.11-26.42L14.11-26.42Q14.31-27.1 14.5-27.83 14.7-28.56 14.89-29.25L14.89-29.25Q14.99-29.59 15.06-29.93 15.14-30.27 15.23-30.66L15.23-30.66Q15.38-31.05 15.55-31.45 15.72-31.84 15.82-32.23L15.82-32.23Q16.16-33.2 16.46-34.2 16.75-35.21 17.19-36.08L17.19-36.08Q17.29-36.18 17.38-36.25 17.48-36.33 17.63-36.43L17.63-36.43Q18.07-36.04 18.21-35.82 18.36-35.6 18.7-35.6L18.7-35.6Q18.9-35.45 18.97-35.23 19.04-35.01 19.34-35.06L19.34-35.06Q19.48-34.96 19.56-34.79 19.63-34.62 19.82-34.52L19.82-34.52Q20.02-34.08 20.07-34.13 20.12-34.18 20.26-34.13L20.26-34.13Q20.36-33.98 20.83-33.79 21.29-33.59 21.48-33.5L21.48-33.5Q21.48-33.3 21.56-33.15 21.63-33.01 21.63-32.81L21.63-32.81Q21.63-32.57 21.46-31.98 21.29-31.4 21.19-31.05L21.19-31.05Q21.44-30.96 21.53-30.98 21.63-31.01 21.73-31.01L21.73-31.01Q22.22-30.18 22.34-29.17 22.46-28.17 22.56-27.34L22.56-27.34Q22.66-26.95 22.73-26.59 22.8-26.22 22.9-25.83L22.9-25.83Q23.14-24.85 23.36-23.9 23.58-22.95 23.83-21.97L23.83-21.97Q23.83-21.73 24.02-21.44L24.02-21.44Q24.02-21.14 24.19-20.48 24.37-19.82 24.56-19.12 24.76-18.41 25-17.77 25.24-17.14 25.39-16.85L25.39-16.85Q25.63-16.99 25.68-17.53 25.73-18.07 25.93-18.31L25.93-18.31Q26.51-20.9 27.17-23.44 27.83-25.98 28.52-28.61L28.52-28.61Q28.96-30.37 29.42-31.98 29.88-33.59 30.52-35.3L30.52-35.3Q30.62-35.5 30.62-35.89L30.62-35.89Q31.2-36.04 31.45-35.79L31.45-35.79Z" opacity="1" transform="matrix(1,0,0,1,0,0)" fill="#ffffff" class="wordmark-text-0" data-fill-palette-color="quaternary" id="text-0"></path></svg></g></svg></g></svg></g></svg></g><g></g></svg></g></svg></g></svg></g></svg></g><defs></defs></svg><rect width="333.90454557049503" height="333.90454557049503" fill="none" stroke="none" visibility="hidden"></rect></g></svg></g></svg>