<svg width="13" height="13" viewBox="0 0 13 13" fill="none" xmlns="http://www.w3.org/2000/svg">
<path d="M10.263 6.84899L10.056 7.05599L5.877 2.87699C4.29135 1.29265 2.22389 0.280561 0 0C0.280561 2.22389 1.29266 4.29135 2.877 5.87699L7.056 10.053L6.849 10.26C6.77672 10.3255 6.7185 10.405 6.67788 10.4936C6.63725 10.5823 6.61506 10.6783 6.61266 10.7758C6.61026 10.8733 6.6277 10.9703 6.66391 11.0609C6.70013 11.1514 6.75436 11.2337 6.82333 11.3027C6.8923 11.3716 6.97456 11.4259 7.06512 11.4621C7.15568 11.4983 7.25266 11.5157 7.35017 11.5133C7.44767 11.5109 7.54367 11.4887 7.63234 11.4481C7.72102 11.4075 7.80051 11.3493 7.866 11.277L8.925 10.218L10.635 11.928C10.7189 12.0142 10.8191 12.0827 10.9299 12.1295C11.0407 12.1762 11.1598 12.2003 11.28 12.2003C11.4003 12.2003 11.5193 12.1762 11.6301 12.1295C11.7409 12.0827 11.8411 12.0142 11.925 11.928C12.0116 11.8441 12.0805 11.7436 12.1276 11.6325C12.1746 11.5215 12.1989 11.4021 12.1989 11.2815C12.1989 11.1609 12.1746 11.0415 12.1276 10.9304C12.0805 10.8194 12.0116 10.7189 11.925 10.635L10.218 8.925L11.277 7.86599C11.3493 7.8005 11.4075 7.721 11.4481 7.63233C11.4888 7.54366 11.5109 7.44767 11.5133 7.35016C11.5157 7.25266 11.4983 7.15567 11.4621 7.06511C11.4259 6.97454 11.3716 6.89228 11.3027 6.82332C11.2337 6.75435 11.1514 6.70012 11.0609 6.6639C10.9703 6.62769 10.8733 6.61025 10.7758 6.61265C10.6783 6.61505 10.5823 6.63725 10.4937 6.67787C10.405 6.7185 10.3255 6.77671 10.26 6.84899H10.263Z" fill="url(#paint0_linear_32_78042)"/>
<defs>
<linearGradient id="paint0_linear_32_78042" x1="6.10727" y1="12.1887" x2="6.10727" y2="-0.00885671" gradientUnits="userSpaceOnUse">
<stop stop-color="#AEB6D6"/>
<stop offset="1" stop-color="#CDD4EC"/>
</linearGradient>
</defs>
</svg>
