<svg width="101" height="101" viewBox="0 0 101 101" fill="none" xmlns="http://www.w3.org/2000/svg">
<g filter="url(#filter0_d_2005_4592)">
<g clip-path="url(#clip0_2005_4592)">
<rect x="2" y="2" width="96.6683" height="96.6683" rx="14" fill="url(#paint0_linear_2005_4592)"/>
<rect x="2" y="2" width="96.6683" height="96.6683" rx="14" fill="#0C1410"/>
<g filter="url(#filter1_dddddd_2005_4592)">
<ellipse cx="71.7541" cy="3" rx="71.7541" ry="3" transform="matrix(-0.904915 0.425592 0.425592 0.904915 161.914 72.8652)" fill="url(#paint1_linear_2005_4592)"/>
<path d="M96.9371 103.307C79.006 111.74 62.9146 119.679 51.3937 125.698C45.6336 128.707 41.0143 131.237 37.8788 133.108C36.3118 134.044 35.1125 134.816 34.3261 135.403C33.9339 135.695 33.6398 135.946 33.4541 136.149C33.3617 136.25 33.2912 136.345 33.2503 136.431C33.2102 136.516 33.1899 136.612 33.2316 136.701C33.2733 136.79 33.3605 136.836 33.4515 136.859C33.5442 136.882 33.6623 136.889 33.7991 136.882C34.0738 136.868 34.454 136.801 34.9296 136.686C35.8831 136.455 37.2429 136.023 38.9627 135.413C42.404 134.191 47.2986 132.247 53.2898 129.729C65.2728 124.693 81.6502 117.362 99.5812 108.929C117.512 100.496 133.604 92.5565 145.125 86.5381C150.885 83.5291 155.504 80.9992 158.64 79.1275C160.207 78.1921 161.406 77.4197 162.192 76.8329C162.585 76.5401 162.879 76.2902 163.064 76.0872C163.156 75.9863 163.226 75.8914 163.267 75.8051C163.307 75.7201 163.328 75.6233 163.287 75.5347C163.245 75.4461 163.157 75.4006 163.066 75.3773C162.973 75.3538 162.856 75.347 162.719 75.3537C162.444 75.3672 162.065 75.4343 161.589 75.5498C160.635 75.7812 159.275 76.2123 157.556 76.8228C154.114 78.0443 149.22 79.9889 143.229 82.5067C131.245 87.5424 114.868 94.8736 96.9371 103.307Z" stroke="#38FF7E" stroke-width="0.212121"/>
</g>
<circle cx="33.5" cy="15.5" r="1" fill="#A2FFC2" fill-opacity="0.2"/>
<circle cx="25.5" cy="8.5" r="0.5" fill="#A2FFC2" fill-opacity="0.2"/>
<circle cx="70.5" cy="17.5" r="0.75" fill="#A2FFC2" fill-opacity="0.35"/>
<circle cx="13.5" cy="85.5" r="0.5" fill="#A2FFC2" fill-opacity="0.2"/>
<circle cx="57.5" cy="87.5" r="0.75" fill="#A2FFC2" fill-opacity="0.2"/>
<circle cx="87.5" cy="93.5" r="0.5" fill="#A2FFC2" fill-opacity="0.2"/>
<circle cx="85.5" cy="43.5" r="0.5" fill="#A2FFC2" fill-opacity="0.35"/>
<circle cx="79.5" cy="86.5" r="0.5" fill="#A2FFC2" fill-opacity="0.35"/>
<circle cx="24.5" cy="77.5" r="0.5" fill="#A2FFC2" fill-opacity="0.35"/>
<circle cx="44.5" cy="43.5" r="0.5" fill="#A2FFC2" fill-opacity="0.2"/>
<circle cx="0.5" cy="0.5" r="0.5" transform="matrix(1 0 0 -1 37 50)" fill="#A2FFC2" fill-opacity="0.15"/>
<circle cx="0.5" cy="0.5" r="0.5" transform="matrix(1 0 0 -1 79 59)" fill="#A2FFC2" fill-opacity="0.15"/>
<circle cx="0.5" cy="0.5" r="0.5" transform="matrix(1 0 0 -1 13 39)" fill="#A2FFC2" fill-opacity="0.15"/>
<circle cx="0.5" cy="0.5" r="0.5" transform="matrix(1 0 0 -1 64 65)" fill="#A2FFC2" fill-opacity="0.1"/>
<circle cx="28.834" cy="30.584" r="0.5" transform="rotate(180 28.834 30.584)" fill="#A2FFC2" fill-opacity="0.2"/>
<circle cx="76.5" cy="69.5" r="1" transform="rotate(180 76.5 69.5)" fill="#A2FFC2" fill-opacity="0.35"/>
<circle cx="48.5" cy="52.5" r="0.5" transform="rotate(180 48.5 52.5)" fill="#A2FFC2" fill-opacity="0.35"/>
<circle cx="13.5" cy="63.5" r="1" transform="rotate(180 13.5 63.5)" fill="#A2FFC2" fill-opacity="0.35"/>
<circle cx="52.5" cy="24.5" r="0.5" transform="rotate(180 52.5 24.5)" fill="#A2FFC2" fill-opacity="0.2"/>
<circle cx="93.5" cy="48.5" r="0.5" transform="rotate(180 93.5 48.5)" fill="#A2FFC2" fill-opacity="0.2"/>
<circle cx="83.5" cy="80.5" r="0.5" transform="rotate(180 83.5 80.5)" fill="#A2FFC2" fill-opacity="0.2"/>
<circle cx="17.5" cy="74.5" r="0.5" transform="rotate(180 17.5 74.5)" fill="#A2FFC2" fill-opacity="0.2"/>
<circle cx="61.5" cy="69.5" r="0.5" transform="rotate(180 61.5 69.5)" fill="#A2FFC2" fill-opacity="0.2"/>
<path d="M26.8086 52.6874L45.6292 71.508L73.8601 29.1616" stroke="url(#paint2_linear_2005_4592)" stroke-width="4.70515" stroke-linecap="round" stroke-linejoin="round"/>
<g filter="url(#filter2_f_2005_4592)">
<path d="M26.8086 52.6874L45.6292 71.508L73.8601 29.1616" stroke="url(#paint3_linear_2005_4592)" stroke-opacity="0.25" stroke-width="4.70515" stroke-linecap="round" stroke-linejoin="round"/>
</g>
</g>
<rect x="2.5" y="2.5" width="95.6683" height="95.6683" rx="13.5" stroke="url(#paint4_linear_2005_4592)"/>
<rect x="2.5" y="2.5" width="95.6683" height="95.6683" rx="13.5" stroke="url(#paint5_linear_2005_4592)"/>
</g>
<defs>
<filter id="filter0_d_2005_4592" x="0" y="0" width="100.668" height="100.668" filterUnits="userSpaceOnUse" color-interpolation-filters="sRGB">
<feFlood flood-opacity="0" result="BackgroundImageFix"/>
<feColorMatrix in="SourceAlpha" type="matrix" values="0 0 0 0 0 0 0 0 0 0 0 0 0 0 0 0 0 0 127 0" result="hardAlpha"/>
<feMorphology radius="2" operator="dilate" in="SourceAlpha" result="effect1_dropShadow_2005_4592"/>
<feOffset/>
<feComposite in2="hardAlpha" operator="out"/>
<feColorMatrix type="matrix" values="0 0 0 0 0.0911751 0 0 0 0 0.16263 0 0 0 0 0.11634 0 0 0 1 0"/>
<feBlend mode="normal" in2="BackgroundImageFix" result="effect1_dropShadow_2005_4592"/>
<feBlend mode="normal" in="SourceGraphic" in2="effect1_dropShadow_2005_4592" result="shape"/>
</filter>
<filter id="filter1_dddddd_2005_4592" x="-231.497" y="-189.354" width="659.513" height="590.945" filterUnits="userSpaceOnUse" color-interpolation-filters="sRGB">
<feFlood flood-opacity="0" result="BackgroundImageFix"/>
<feColorMatrix in="SourceAlpha" type="matrix" values="0 0 0 0 0 0 0 0 0 0 0 0 0 0 0 0 0 0 127 0" result="hardAlpha"/>
<feOffset/>
<feGaussianBlur stdDeviation="6.3"/>
<feColorMatrix type="matrix" values="0 0 0 0 0.219608 0 0 0 0 1 0 0 0 0 0.494118 0 0 0 1 0"/>
<feBlend mode="normal" in2="BackgroundImageFix" result="effect1_dropShadow_2005_4592"/>
<feColorMatrix in="SourceAlpha" type="matrix" values="0 0 0 0 0 0 0 0 0 0 0 0 0 0 0 0 0 0 127 0" result="hardAlpha"/>
<feOffset/>
<feGaussianBlur stdDeviation="6.3"/>
<feColorMatrix type="matrix" values="0 0 0 0 0.219608 0 0 0 0 1 0 0 0 0 0.494118 0 0 0 1 0"/>
<feBlend mode="normal" in2="effect1_dropShadow_2005_4592" result="effect2_dropShadow_2005_4592"/>
<feColorMatrix in="SourceAlpha" type="matrix" values="0 0 0 0 0 0 0 0 0 0 0 0 0 0 0 0 0 0 127 0" result="hardAlpha"/>
<feOffset/>
<feGaussianBlur stdDeviation="22.05"/>
<feColorMatrix type="matrix" values="0 0 0 0 0.219608 0 0 0 0 1 0 0 0 0 0.494118 0 0 0 1 0"/>
<feBlend mode="normal" in2="effect2_dropShadow_2005_4592" result="effect3_dropShadow_2005_4592"/>
<feColorMatrix in="SourceAlpha" type="matrix" values="0 0 0 0 0 0 0 0 0 0 0 0 0 0 0 0 0 0 127 0" result="hardAlpha"/>
<feOffset/>
<feGaussianBlur stdDeviation="44.1"/>
<feColorMatrix type="matrix" values="0 0 0 0 0.219608 0 0 0 0 1 0 0 0 0 0.494118 0 0 0 1 0"/>
<feBlend mode="normal" in2="effect3_dropShadow_2005_4592" result="effect4_dropShadow_2005_4592"/>
<feColorMatrix in="SourceAlpha" type="matrix" values="0 0 0 0 0 0 0 0 0 0 0 0 0 0 0 0 0 0 127 0" result="hardAlpha"/>
<feOffset/>
<feGaussianBlur stdDeviation="75.6"/>
<feColorMatrix type="matrix" values="0 0 0 0 0.219608 0 0 0 0 1 0 0 0 0 0.494118 0 0 0 1 0"/>
<feBlend mode="normal" in2="effect4_dropShadow_2005_4592" result="effect5_dropShadow_2005_4592"/>
<feColorMatrix in="SourceAlpha" type="matrix" values="0 0 0 0 0 0 0 0 0 0 0 0 0 0 0 0 0 0 127 0" result="hardAlpha"/>
<feOffset/>
<feGaussianBlur stdDeviation="132.3"/>
<feColorMatrix type="matrix" values="0 0 0 0 0.219608 0 0 0 0 1 0 0 0 0 0.494118 0 0 0 1 0"/>
<feBlend mode="normal" in2="effect5_dropShadow_2005_4592" result="effect6_dropShadow_2005_4592"/>
<feBlend mode="normal" in="SourceGraphic" in2="effect6_dropShadow_2005_4592" result="shape"/>
</filter>
<filter id="filter2_f_2005_4592" x="14.4561" y="16.8086" width="71.7568" height="67.0518" filterUnits="userSpaceOnUse" color-interpolation-filters="sRGB">
<feFlood flood-opacity="0" result="BackgroundImageFix"/>
<feBlend mode="normal" in="SourceGraphic" in2="BackgroundImageFix" result="shape"/>
<feGaussianBlur stdDeviation="5" result="effect1_foregroundBlur_2005_4592"/>
</filter>
<linearGradient id="paint0_linear_2005_4592" x1="50.3341" y1="2" x2="50.3341" y2="98.6683" gradientUnits="userSpaceOnUse">
<stop/>
<stop offset="0.142121" stop-color="#030905"/>
<stop offset="0.410163" stop-color="#030A06"/>
<stop offset="0.597597" stop-color="#030905"/>
<stop offset="1" stop-color="#030905"/>
</linearGradient>
<linearGradient id="paint1_linear_2005_4592" x1="71.7541" y1="0" x2="71.7541" y2="6" gradientUnits="userSpaceOnUse">
<stop stop-color="#072110"/>
<stop offset="0.447324" stop-color="#072110"/>
<stop offset="0.731766" stop-color="#021609"/>
<stop offset="1" stop-color="#010D05"/>
</linearGradient>
<linearGradient id="paint2_linear_2005_4592" x1="37.1345" y1="65.7331" x2="74.2587" y2="31.0839" gradientUnits="userSpaceOnUse">
<stop stop-color="#38FE7E"/>
<stop offset="0.189994" stop-color="#31EF76"/>
<stop offset="1" stop-color="#0A9947"/>
</linearGradient>
<linearGradient id="paint3_linear_2005_4592" x1="37.1345" y1="65.7331" x2="74.2587" y2="31.0839" gradientUnits="userSpaceOnUse">
<stop stop-color="#38FE7E"/>
<stop offset="0.189994" stop-color="#31EF76"/>
<stop offset="1" stop-color="#0A9947"/>
</linearGradient>
<linearGradient id="paint4_linear_2005_4592" x1="50.3341" y1="2" x2="50.3341" y2="98.6683" gradientUnits="userSpaceOnUse">
<stop stop-color="#244A32"/>
<stop offset="0.0319355" stop-color="#172F21"/>
<stop offset="0.974252" stop-color="#172F21"/>
<stop offset="1" stop-color="#244A32"/>
</linearGradient>
<linearGradient id="paint5_linear_2005_4592" x1="50.334" y1="1.58398" x2="50.334" y2="98.584" gradientUnits="userSpaceOnUse">
<stop offset="0.28095" stop-color="#38FF7E" stop-opacity="0"/>
<stop offset="1" stop-color="#3C955B"/>
</linearGradient>
<clipPath id="clip0_2005_4592">
<rect x="2" y="2" width="96.6683" height="96.6683" rx="14" fill="white"/>
</clipPath>
</defs>
</svg>